<mxfile host="app.diagrams.net" modified="2024-05-30T03:23:58.315Z" agent="Mozilla/5.0 (Macintosh; Intel Mac OS X 10_15_7) AppleWebKit/537.36 (KHTML, like Gecko) Chrome/125.0.0.0 Safari/537.36" etag="_hO4Dy3FOe-RwPtv9Gql" version="24.4.3" type="github">
  <diagram name="Page-1" id="197159a0-c6a4-9194-75a8-e4174976684c">
    <mxGraphModel dx="1103" dy="612" grid="1" gridSize="10" guides="1" tooltips="1" connect="1" arrows="1" fold="1" page="1" pageScale="1.5" pageWidth="1169" pageHeight="826" background="none" math="0" shadow="0">
      <root>
        <mxCell id="0" style=";html=1;" />
        <mxCell id="1" style=";html=1;" parent="0" />
        <mxCell id="vTtUTgCULKOJCAG_XpMJ-215" value="Windows Server" style="whiteSpace=wrap;html=1;rounded=1;shadow=0;strokeColor=none;strokeWidth=2;fillColor=#009BFF;fontSize=20;fontColor=#FFFFFF;align=center;arcSize=3;verticalAlign=top;spacingTop=4;" vertex="1" parent="1">
          <mxGeometry x="250" y="197" width="830" height="593" as="geometry" />
        </mxCell>
        <mxCell id="vTtUTgCULKOJCAG_XpMJ-216" value="&lt;div&gt;&lt;br&gt;&lt;/div&gt;" style="rounded=1;whiteSpace=wrap;html=1;shadow=0;strokeWidth=2;fillColor=#0072BC;fontSize=12;fontColor=#FFFFFF;align=center;strokeColor=none;arcSize=3;verticalAlign=top;" vertex="1" parent="1">
          <mxGeometry x="740" y="271" width="280" height="379" as="geometry" />
        </mxCell>
        <mxCell id="vTtUTgCULKOJCAG_XpMJ-217" value="" style="rounded=1;whiteSpace=wrap;html=1;shadow=0;strokeWidth=2;fillColor=#8BC63E;fontSize=12;fontColor=#000000;align=center;strokeColor=none;arcSize=3;" vertex="1" parent="1">
          <mxGeometry x="400" y="271" width="270" height="379" as="geometry" />
        </mxCell>
        <mxCell id="vTtUTgCULKOJCAG_XpMJ-230" style="html=1;startArrow=none;startFill=0;startSize=10;endArrow=none;endFill=0;endSize=10;strokeWidth=3;fontSize=11;fontColor=#FFFFFF;entryX=0.793;entryY=0.26;entryPerimeter=0;strokeColor=#FFFFFF;rounded=0;" edge="1" parent="1" target="vTtUTgCULKOJCAG_XpMJ-229">
          <mxGeometry relative="1" as="geometry">
            <mxPoint x="614" y="509.98425849212936" as="sourcePoint" />
          </mxGeometry>
        </mxCell>
        <mxCell id="vTtUTgCULKOJCAG_XpMJ-232" style="html=1;entryX=1.016;entryY=0.509;entryPerimeter=0;startArrow=none;startFill=0;startSize=10;endArrow=none;endFill=0;endSize=10;strokeWidth=3;fontSize=11;fontColor=#FFFFFF;strokeColor=#FFFFFF;rounded=0;" edge="1" parent="1" target="vTtUTgCULKOJCAG_XpMJ-229">
          <mxGeometry relative="1" as="geometry">
            <mxPoint x="614" y="546.2286585365855" as="sourcePoint" />
          </mxGeometry>
        </mxCell>
        <mxCell id="vTtUTgCULKOJCAG_XpMJ-246" style="html=1;startArrow=none;startFill=0;startSize=10;endArrow=none;endFill=0;endSize=10;strokeWidth=3;fontSize=11;fontColor=#FFFFFF;strokeColor=#FFFFFF;rounded=0;edgeStyle=elbowEdgeStyle;elbow=vertical;" edge="1" parent="1" target="vTtUTgCULKOJCAG_XpMJ-218">
          <mxGeometry relative="1" as="geometry">
            <mxPoint x="734" y="545.8888888888889" as="sourcePoint" />
          </mxGeometry>
        </mxCell>
        <mxCell id="vTtUTgCULKOJCAG_XpMJ-247" style="edgeStyle=orthogonalEdgeStyle;html=1;startArrow=none;startFill=0;startSize=10;endArrow=none;endFill=0;endSize=10;strokeWidth=3;fontSize=11;fontColor=#FFFFFF;strokeColor=#FFFFFF;rounded=0;" edge="1" parent="1" source="vTtUTgCULKOJCAG_XpMJ-250">
          <mxGeometry relative="1" as="geometry">
            <mxPoint x="809" y="546.0000000000002" as="targetPoint" />
          </mxGeometry>
        </mxCell>
        <mxCell id="vTtUTgCULKOJCAG_XpMJ-248" style="html=1;startArrow=none;startFill=0;startSize=10;endArrow=none;endFill=0;endSize=10;strokeWidth=3;fontSize=11;fontColor=#FFFFFF;strokeColor=#FFFFFF;rounded=0;exitX=0.796;exitY=0.241;exitPerimeter=0;" edge="1" parent="1" source="vTtUTgCULKOJCAG_XpMJ-250">
          <mxGeometry relative="1" as="geometry">
            <mxPoint x="809" y="509.6320598006646" as="targetPoint" />
          </mxGeometry>
        </mxCell>
        <mxCell id="vTtUTgCULKOJCAG_XpMJ-249" style="html=1;startArrow=none;startFill=0;startSize=10;endArrow=none;endFill=0;endSize=10;strokeWidth=3;fontSize=11;fontColor=#FFFFFF;strokeColor=#FFFFFF;rounded=0;exitX=0.789;exitY=0.767;exitPerimeter=0;" edge="1" parent="1" source="vTtUTgCULKOJCAG_XpMJ-250">
          <mxGeometry relative="1" as="geometry">
            <mxPoint x="809" y="582.0421139554087" as="targetPoint" />
          </mxGeometry>
        </mxCell>
        <mxCell id="vTtUTgCULKOJCAG_XpMJ-330" style="edgeStyle=orthogonalEdgeStyle;rounded=0;orthogonalLoop=1;jettySize=auto;html=1;entryX=0;entryY=0.5;entryDx=0;entryDy=0;strokeWidth=3;strokeColor=#FFFFFF;dashed=1;" edge="1" parent="1" source="vTtUTgCULKOJCAG_XpMJ-255" target="vTtUTgCULKOJCAG_XpMJ-314">
          <mxGeometry relative="1" as="geometry" />
        </mxCell>
        <mxCell id="vTtUTgCULKOJCAG_XpMJ-255" value="" style="shadow=0;dashed=0;html=1;strokeColor=none;labelPosition=right;verticalLabelPosition=middle;verticalAlign=middle;shape=mxgraph.office.concepts.firewall;fillColor=#FFFFFF;rounded=1;fontSize=11;fontColor=#FFFFFF;align=left;spacingLeft=5;" vertex="1" parent="1">
          <mxGeometry x="450" y="430" width="47" height="43" as="geometry" />
        </mxCell>
        <mxCell id="vTtUTgCULKOJCAG_XpMJ-266" value="应用服务器&lt;div&gt;192.168.0.126&lt;/div&gt;" style="text;html=1;strokeColor=none;fillColor=none;align=center;verticalAlign=middle;whiteSpace=wrap;rounded=1;shadow=0;fontSize=11;fontColor=#FFFFFF;fontStyle=1" vertex="1" parent="1">
          <mxGeometry x="420" y="290" width="74" height="20" as="geometry" />
        </mxCell>
        <mxCell id="vTtUTgCULKOJCAG_XpMJ-267" value="&lt;div&gt;&lt;br class=&quot;Apple-interchange-newline&quot;&gt;中间件服务器&lt;div&gt;192.168.0.127&lt;/div&gt;&lt;div&gt;&lt;br&gt;&lt;/div&gt;&lt;/div&gt;" style="text;html=1;strokeColor=none;fillColor=none;align=center;verticalAlign=middle;whiteSpace=wrap;rounded=1;shadow=0;fontSize=11;fontColor=#FFFFFF;fontStyle=1" vertex="1" parent="1">
          <mxGeometry x="751.5" y="290" width="92" height="20" as="geometry" />
        </mxCell>
        <mxCell id="vTtUTgCULKOJCAG_XpMJ-291" value="" style="verticalLabelPosition=top;html=1;verticalAlign=bottom;strokeColor=none;fillColor=#FFFFFF;shape=mxgraph.azure.azure_website;rounded=0;shadow=0;fontSize=10;fontColor=#FFFFFF;align=center;labelPosition=center;" vertex="1" parent="1">
          <mxGeometry x="572.5" y="430" width="50" height="50" as="geometry" />
        </mxCell>
        <mxCell id="vTtUTgCULKOJCAG_XpMJ-298" value="&lt;h1&gt;Heading&lt;/h1&gt;&lt;p&gt;Lorem ipsum dolor sit amet, consectetur adipisicing elit, sed do eiusmod tempor incididunt ut labore et dolore magna aliqua.&lt;/p&gt;" style="text;html=1;strokeColor=none;fillColor=none;spacing=5;spacingTop=-20;whiteSpace=wrap;overflow=hidden;rounded=0;shadow=0;fontSize=10;fontColor=#FFFFFF;align=left;" vertex="1" parent="1">
          <mxGeometry x="229" y="932" width="1041" height="70" as="geometry" />
        </mxCell>
        <mxCell id="vTtUTgCULKOJCAG_XpMJ-304" value="" style="verticalLabelPosition=top;html=1;verticalAlign=bottom;strokeColor=none;fillColor=#FFFFFF;shape=mxgraph.azure.mysql_database;rounded=0;shadow=0;fontSize=10;fontColor=#FFFFFF;align=center;labelPosition=center;" vertex="1" parent="1">
          <mxGeometry x="926.25" y="428.5" width="37.5" height="50" as="geometry" />
        </mxCell>
        <mxCell id="vTtUTgCULKOJCAG_XpMJ-307" value="" style="image;sketch=0;aspect=fixed;html=1;points=[];align=center;fontSize=12;image=img/lib/mscae/Cache_Redis_Product.svg;" vertex="1" parent="1">
          <mxGeometry x="920" y="320" width="50" height="42" as="geometry" />
        </mxCell>
        <mxCell id="vTtUTgCULKOJCAG_XpMJ-350" style="edgeStyle=orthogonalEdgeStyle;rounded=0;orthogonalLoop=1;jettySize=auto;html=1;dashed=1;strokeWidth=3;strokeColor=#FFFFFF;" edge="1" parent="1" source="vTtUTgCULKOJCAG_XpMJ-309" target="vTtUTgCULKOJCAG_XpMJ-347">
          <mxGeometry relative="1" as="geometry" />
        </mxCell>
        <mxCell id="vTtUTgCULKOJCAG_XpMJ-309" value="" style="verticalLabelPosition=bottom;html=1;verticalAlign=top;align=center;shape=mxgraph.azure.cloud_services_configuration_file;pointerEvents=1;strokeColor=#FFFFFF;" vertex="1" parent="1">
          <mxGeometry x="921.25" y="541" width="47.5" height="50" as="geometry" />
        </mxCell>
        <mxCell id="vTtUTgCULKOJCAG_XpMJ-349" style="edgeStyle=orthogonalEdgeStyle;rounded=0;orthogonalLoop=1;jettySize=auto;html=1;dashed=1;strokeWidth=3;strokeColor=#FFFFFF;" edge="1" parent="1" source="vTtUTgCULKOJCAG_XpMJ-310" target="vTtUTgCULKOJCAG_XpMJ-344">
          <mxGeometry relative="1" as="geometry" />
        </mxCell>
        <mxCell id="vTtUTgCULKOJCAG_XpMJ-310" value="" style="verticalLabelPosition=bottom;html=1;verticalAlign=top;align=center;shape=mxgraph.azure.cloud_services_configuration_file;pointerEvents=1;strokeColor=#ffffff;" vertex="1" parent="1">
          <mxGeometry x="575" y="540" width="47.5" height="50" as="geometry" />
        </mxCell>
        <mxCell id="vTtUTgCULKOJCAG_XpMJ-314" value="" style="editableCssRules=.*;html=1;shape=image;verticalLabelPosition=bottom;labelBackgroundColor=#ffffff;verticalAlign=top;aspect=fixed;imageAspect=0;image=data:image/svg+xml,PHN2ZyB4bWxucz0iaHR0cDovL3d3dy53My5vcmcvMjAwMC9zdmciIHhtbG5zOnY9Imh0dHBzOi8vdmVjdGEuaW8vbmFubyIgd2lkdGg9IjIwIiBoZWlnaHQ9IjIwIiB2aWV3Qm94PSIwIDAgMjAgMjAiPiYjeGE7CTxzdHlsZSB0eXBlPSJ0ZXh0L2NzcyI+LnN0MCB7IGZpbGw6IHJnYigyNTUsIDI1NSwgMjU1KTsgfSAuc3QxIHsgZmlsbDogcmdiKDEwMiwgMTU3LCAyNDYpOyB9IC5zdDIgeyBmaWxsOiByZ2IoMTc0LCAyMDMsIDI1MCk7IH0gLnN0MyB7IGZpbGw6IHJnYigyNTUsIDI1NSwgMjU1KTsgfSA8L3N0eWxlPiYjeGE7CTxwYXRoIGNsYXNzPSJzdDAiIGQ9Ik05IDZoMnYxMEg5eiIvPiYjeGE7CTxwYXRoIGNsYXNzPSJzdDEiIGQ9Ik0yMCAxN0gwdjJoMjB6Ii8+JiN4YTsJPHBhdGggY2xhc3M9InN0MiIgZD0iTTEyIDE2SDh2NGg0ek0wIDBoMjB2NkgweiIvPiYjeGE7CTxwYXRoIGNsYXNzPSJzdDEiIGQ9Ik0xMCAwaDEwdjZIMTB6Ii8+JiN4YTsJPHBhdGggY2xhc3M9InN0MyIgZD0iTTIgMmgydjJIMnoiLz4mI3hhOwk8cGF0aCBjbGFzcz0ic3QyIiBkPSJNMCA4aDIwdjZIMHoiLz4mI3hhOwk8cGF0aCBjbGFzcz0ic3QxIiBkPSJNMTAgOGgxMHY2SDEweiIvPiYjeGE7CTxwYXRoIGNsYXNzPSJzdDMiIGQ9Ik0yIDEwaDJ2MkgyeiIvPiYjeGE7PC9zdmc+;" vertex="1" parent="1">
          <mxGeometry x="578.75" y="322" width="40" height="40" as="geometry" />
        </mxCell>
        <mxCell id="vTtUTgCULKOJCAG_XpMJ-316" value="" style="shadow=0;dashed=0;html=1;strokeColor=none;labelPosition=right;verticalLabelPosition=middle;verticalAlign=middle;shape=mxgraph.office.concepts.firewall;fillColor=#FFFFFF;rounded=1;fontSize=11;fontColor=#FFFFFF;align=left;spacingLeft=5;" vertex="1" parent="1">
          <mxGeometry x="790" y="432" width="47" height="43" as="geometry" />
        </mxCell>
        <mxCell id="vTtUTgCULKOJCAG_XpMJ-317" value="" style="shadow=0;dashed=0;html=1;strokeColor=none;labelPosition=right;verticalLabelPosition=middle;verticalAlign=middle;shape=mxgraph.office.concepts.firewall;fillColor=#FFFFFF;rounded=1;fontSize=11;fontColor=#FFFFFF;align=left;spacingLeft=5;" vertex="1" parent="1">
          <mxGeometry x="300" y="430" width="47" height="43" as="geometry" />
        </mxCell>
        <mxCell id="vTtUTgCULKOJCAG_XpMJ-318" style="edgeStyle=orthogonalEdgeStyle;rounded=0;orthogonalLoop=1;jettySize=auto;html=1;entryX=0.007;entryY=0.499;entryDx=0;entryDy=0;entryPerimeter=0;strokeColor=#FFFFFF;strokeWidth=3;dashed=1;" edge="1" parent="1" source="vTtUTgCULKOJCAG_XpMJ-317" target="vTtUTgCULKOJCAG_XpMJ-255">
          <mxGeometry relative="1" as="geometry" />
        </mxCell>
        <mxCell id="vTtUTgCULKOJCAG_XpMJ-321" value="&lt;font color=&quot;#ffffff&quot;&gt;防火墙&lt;/font&gt;" style="text;html=1;align=center;verticalAlign=middle;whiteSpace=wrap;rounded=0;" vertex="1" parent="1">
          <mxGeometry x="293.5" y="472" width="60" height="30" as="geometry" />
        </mxCell>
        <mxCell id="vTtUTgCULKOJCAG_XpMJ-322" value="&lt;font color=&quot;#ffffff&quot;&gt;防火墙&lt;/font&gt;" style="text;html=1;align=center;verticalAlign=middle;whiteSpace=wrap;rounded=0;" vertex="1" parent="1">
          <mxGeometry x="443.5" y="472" width="60" height="30" as="geometry" />
        </mxCell>
        <mxCell id="vTtUTgCULKOJCAG_XpMJ-323" value="&lt;font color=&quot;#ffffff&quot;&gt;防火墙&lt;/font&gt;" style="text;html=1;align=center;verticalAlign=middle;whiteSpace=wrap;rounded=0;" vertex="1" parent="1">
          <mxGeometry x="783.5" y="472" width="60" height="30" as="geometry" />
        </mxCell>
        <mxCell id="vTtUTgCULKOJCAG_XpMJ-324" value="&lt;font color=&quot;#ffffff&quot;&gt;本地文件Bak&lt;/font&gt;" style="text;html=1;align=center;verticalAlign=middle;whiteSpace=wrap;rounded=0;" vertex="1" parent="1">
          <mxGeometry x="559.38" y="590" width="78.75" height="30" as="geometry" />
        </mxCell>
        <mxCell id="vTtUTgCULKOJCAG_XpMJ-325" value="&lt;font color=&quot;#ffffff&quot;&gt;数据库文件Bak&lt;/font&gt;" style="text;html=1;align=center;verticalAlign=middle;whiteSpace=wrap;rounded=0;" vertex="1" parent="1">
          <mxGeometry x="898.75" y="591" width="95" height="30" as="geometry" />
        </mxCell>
        <mxCell id="vTtUTgCULKOJCAG_XpMJ-326" value="&lt;font color=&quot;#ffffff&quot;&gt;服务部署&lt;/font&gt;" style="text;html=1;align=center;verticalAlign=middle;whiteSpace=wrap;rounded=0;" vertex="1" parent="1">
          <mxGeometry x="568.76" y="473" width="60" height="30" as="geometry" />
        </mxCell>
        <mxCell id="vTtUTgCULKOJCAG_XpMJ-327" value="&lt;font color=&quot;#ffffff&quot;&gt;Nginx&lt;/font&gt;" style="text;html=1;align=center;verticalAlign=middle;whiteSpace=wrap;rounded=0;" vertex="1" parent="1">
          <mxGeometry x="567.5" y="362" width="60" height="30" as="geometry" />
        </mxCell>
        <mxCell id="vTtUTgCULKOJCAG_XpMJ-328" value="&lt;font color=&quot;#ffffff&quot;&gt;Redis&lt;/font&gt;" style="text;html=1;align=center;verticalAlign=middle;whiteSpace=wrap;rounded=0;" vertex="1" parent="1">
          <mxGeometry x="915" y="362" width="60" height="30" as="geometry" />
        </mxCell>
        <mxCell id="vTtUTgCULKOJCAG_XpMJ-331" style="edgeStyle=orthogonalEdgeStyle;rounded=0;orthogonalLoop=1;jettySize=auto;html=1;exitX=1;exitY=0.5;exitDx=0;exitDy=0;entryX=0.5;entryY=0;entryDx=0;entryDy=0;entryPerimeter=0;strokeWidth=3;strokeColor=#FFFFFF;dashed=1;" edge="1" parent="1" source="vTtUTgCULKOJCAG_XpMJ-314" target="vTtUTgCULKOJCAG_XpMJ-291">
          <mxGeometry relative="1" as="geometry" />
        </mxCell>
        <mxCell id="vTtUTgCULKOJCAG_XpMJ-332" style="edgeStyle=orthogonalEdgeStyle;rounded=0;orthogonalLoop=1;jettySize=auto;html=1;exitX=0.5;exitY=0;exitDx=0;exitDy=0;entryX=0.5;entryY=0;entryDx=0;entryDy=0;entryPerimeter=0;strokeWidth=3;strokeColor=#FFFFFF;dashed=1;" edge="1" parent="1" source="vTtUTgCULKOJCAG_XpMJ-326" target="vTtUTgCULKOJCAG_XpMJ-310">
          <mxGeometry relative="1" as="geometry">
            <Array as="points">
              <mxPoint x="599" y="510" />
              <mxPoint x="599" y="510" />
            </Array>
          </mxGeometry>
        </mxCell>
        <mxCell id="vTtUTgCULKOJCAG_XpMJ-333" style="edgeStyle=orthogonalEdgeStyle;rounded=0;orthogonalLoop=1;jettySize=auto;html=1;exitX=1;exitY=0.5;exitDx=0;exitDy=0;exitPerimeter=0;entryX=-0.111;entryY=0.535;entryDx=0;entryDy=0;entryPerimeter=0;strokeWidth=3;strokeColor=#FFFFFF;dashed=1;" edge="1" parent="1" source="vTtUTgCULKOJCAG_XpMJ-291" target="vTtUTgCULKOJCAG_XpMJ-316">
          <mxGeometry relative="1" as="geometry" />
        </mxCell>
        <mxCell id="vTtUTgCULKOJCAG_XpMJ-335" style="edgeStyle=orthogonalEdgeStyle;rounded=0;orthogonalLoop=1;jettySize=auto;html=1;entryX=-0.001;entryY=0.483;entryDx=0;entryDy=0;entryPerimeter=0;strokeWidth=3;strokeColor=#FFFFFF;dashed=1;" edge="1" parent="1" source="vTtUTgCULKOJCAG_XpMJ-316" target="vTtUTgCULKOJCAG_XpMJ-307">
          <mxGeometry relative="1" as="geometry" />
        </mxCell>
        <mxCell id="vTtUTgCULKOJCAG_XpMJ-337" style="edgeStyle=orthogonalEdgeStyle;rounded=0;orthogonalLoop=1;jettySize=auto;html=1;entryX=0;entryY=0.5;entryDx=0;entryDy=0;entryPerimeter=0;strokeWidth=3;strokeColor=#FFFFFF;dashed=1;" edge="1" parent="1" source="vTtUTgCULKOJCAG_XpMJ-316" target="vTtUTgCULKOJCAG_XpMJ-304">
          <mxGeometry relative="1" as="geometry" />
        </mxCell>
        <mxCell id="vTtUTgCULKOJCAG_XpMJ-343" value="" style="rounded=1;whiteSpace=wrap;html=1;shadow=0;strokeWidth=2;fillColor=#00CC00;fontSize=12;align=center;strokeColor=#00CC00;arcSize=3;" vertex="1" parent="1">
          <mxGeometry x="400" y="680" width="620" height="80" as="geometry" />
        </mxCell>
        <mxCell id="vTtUTgCULKOJCAG_XpMJ-344" value="" style="verticalLabelPosition=bottom;html=1;verticalAlign=top;align=center;shape=mxgraph.azure.cloud_services_configuration_file;pointerEvents=1;strokeColor=#ffffff;" vertex="1" parent="1">
          <mxGeometry x="480" y="695" width="47.5" height="50" as="geometry" />
        </mxCell>
        <mxCell id="vTtUTgCULKOJCAG_XpMJ-346" value="&lt;font color=&quot;#ffffff&quot;&gt;E:/bak/file&lt;/font&gt;" style="text;html=1;align=center;verticalAlign=middle;whiteSpace=wrap;rounded=0;" vertex="1" parent="1">
          <mxGeometry x="527.5" y="705" width="78.75" height="30" as="geometry" />
        </mxCell>
        <mxCell id="vTtUTgCULKOJCAG_XpMJ-347" value="" style="verticalLabelPosition=bottom;html=1;verticalAlign=top;align=center;shape=mxgraph.azure.cloud_services_configuration_file;pointerEvents=1;strokeColor=#ffffff;" vertex="1" parent="1">
          <mxGeometry x="814" y="695" width="47.5" height="50" as="geometry" />
        </mxCell>
        <mxCell id="vTtUTgCULKOJCAG_XpMJ-348" value="&lt;font color=&quot;#ffffff&quot;&gt;E:/bak/sql&lt;/font&gt;" style="text;html=1;align=center;verticalAlign=middle;whiteSpace=wrap;rounded=0;" vertex="1" parent="1">
          <mxGeometry x="861.5" y="705" width="78.75" height="30" as="geometry" />
        </mxCell>
        <mxCell id="vTtUTgCULKOJCAG_XpMJ-352" value="" style="edgeStyle=orthogonalEdgeStyle;rounded=0;orthogonalLoop=1;jettySize=auto;html=1;entryX=0.5;entryY=0;entryDx=0;entryDy=0;entryPerimeter=0;exitX=0.5;exitY=1;exitDx=0;exitDy=0;exitPerimeter=0;strokeWidth=3;strokeColor=#FFFFFF;dashed=1;" edge="1" parent="1" source="vTtUTgCULKOJCAG_XpMJ-329" target="vTtUTgCULKOJCAG_XpMJ-309">
          <mxGeometry relative="1" as="geometry">
            <mxPoint x="945" y="479" as="sourcePoint" />
            <mxPoint x="945" y="541" as="targetPoint" />
          </mxGeometry>
        </mxCell>
        <mxCell id="vTtUTgCULKOJCAG_XpMJ-329" value="&lt;font color=&quot;#ffffff&quot;&gt;Mysql&lt;/font&gt;" style="text;html=1;align=center;verticalAlign=middle;whiteSpace=wrap;rounded=0;" vertex="1" parent="1">
          <mxGeometry x="916.25" y="472" width="60" height="30" as="geometry" />
        </mxCell>
      </root>
    </mxGraphModel>
  </diagram>
</mxfile>
